<svg width="300" height="300" viewBox="0 0 300 300" fill="none" xmlns="http://www.w3.org/2000/svg">
<path d="M87.6701 258.011C92.6618 258.011 95.5533 260.341 95.5533 265.34V274.755H91.1095V272.7C90.2268 274.203 88.5224 275 86.1178 275C82.2828 275 80 272.853 80 270.001C80 267.088 82.0393 265.064 87.0309 265.064H90.8051C90.8051 263.009 89.5876 261.813 87.0309 261.813C85.296 261.813 83.5003 262.396 82.3132 263.347L80.6087 260.004C82.4045 258.716 85.0525 258.011 87.6701 258.011ZM87.3049 271.78C88.8876 271.78 90.2573 271.044 90.8051 269.541V267.855H87.5484C85.3265 267.855 84.6264 268.683 84.6264 269.787C84.6264 270.983 85.6308 271.78 87.3049 271.78Z" fill="#145185"/>
<path d="M111.599 258.256H116.347V274.755H111.843V272.792C110.595 274.233 108.769 275 106.76 275C102.651 275 99.7593 272.669 99.7593 267.579V258.256H104.507V266.873C104.507 269.633 105.725 270.86 107.825 270.86C110.017 270.86 111.599 269.449 111.599 266.413V258.256Z" fill="#145185"/>
<path d="M130.03 270.584L131.308 273.957C130.334 274.663 128.903 275 127.442 275C123.577 275 121.325 273.007 121.325 269.081V262.304H118.798V258.624H121.325V254.607H126.073V258.624H130.151V262.304H126.073V269.02C126.073 270.431 126.834 271.197 128.112 271.197C128.812 271.197 129.512 270.983 130.03 270.584Z" fill="#145185"/>
<path d="M143.926 258.011C147.792 258.011 150.714 260.28 150.714 265.309V274.755H145.965V266.045C145.965 263.377 144.748 262.151 142.648 262.151C140.365 262.151 138.721 263.561 138.721 266.597V274.755H133.973V252H138.721V259.973C140 258.685 141.826 258.011 143.926 258.011Z" fill="#145185"/>
<path d="M175.989 258.011C179.885 258.011 182.685 260.28 182.685 265.309V274.755H177.937V266.045C177.937 263.377 176.75 262.151 174.832 262.151C172.701 262.151 171.21 263.531 171.21 266.475V274.755H166.462V266.045C166.462 263.377 165.336 262.151 163.357 262.151C161.257 262.151 159.766 263.531 159.766 266.475V274.755H155.018V258.256H159.553V260.157C160.77 258.747 162.596 258.011 164.697 258.011C166.979 258.011 168.927 258.9 170.084 260.709C171.393 259.023 173.523 258.011 175.989 258.011Z" fill="#790000"/>
<path d="M203.159 266.567C203.159 266.935 203.098 267.456 203.068 267.855H190.68C191.137 269.909 192.872 271.167 195.368 271.167C197.102 271.167 198.35 270.645 199.477 269.572L202.003 272.332C200.481 274.08 198.198 275 195.246 275C189.584 275 185.902 271.412 185.902 266.505C185.902 261.568 189.645 258.011 194.637 258.011C199.446 258.011 203.159 261.261 203.159 266.567ZM194.667 261.629C192.506 261.629 190.954 262.948 190.619 265.064H198.685C198.35 262.979 196.798 261.629 194.667 261.629Z" fill="#790000"/>
<path d="M218.252 252H223V274.755H218.465V272.853C217.278 274.295 215.543 275 213.351 275C208.725 275 205.164 271.688 205.164 266.505C205.164 261.323 208.725 258.011 213.351 258.011C215.36 258.011 217.065 258.655 218.252 260.004V252ZM214.173 271.075C216.517 271.075 218.343 269.357 218.343 266.505C218.343 263.653 216.517 261.936 214.173 261.936C211.799 261.936 209.973 263.653 209.973 266.505C209.973 269.357 211.799 271.075 214.173 271.075Z" fill="#790000"/>
<path d="M82.5233 286.625C81.5378 286.625 80.5415 286.347 80 285.979L80.5631 284.734C81.083 285.079 81.8735 285.312 82.5883 285.312C83.368 285.312 83.6604 285.101 83.6604 284.767C83.6604 283.788 80.1408 284.789 80.1408 282.398C80.1408 281.264 81.1371 280.463 82.8374 280.463C83.6387 280.463 84.5268 280.652 85.0791 280.986L84.5159 282.22C83.942 281.886 83.368 281.775 82.8374 281.775C82.0793 281.775 81.7544 282.02 81.7544 282.331C81.7544 283.355 85.274 282.365 85.274 284.723C85.274 285.835 84.2669 286.625 82.5233 286.625Z" fill="#145185"/>
<path d="M88.6664 280.463C90.4425 280.463 91.4713 281.308 91.4713 283.121V286.536H89.8901V285.79C89.5761 286.335 88.9696 286.625 88.1141 286.625C86.7496 286.625 85.9373 285.846 85.9373 284.812C85.9373 283.755 86.6629 283.021 88.439 283.021H89.7818C89.7818 282.276 89.3487 281.842 88.439 281.842C87.8217 281.842 87.1827 282.053 86.7604 282.398L86.1539 281.186C86.7929 280.719 87.735 280.463 88.6664 280.463ZM88.5364 285.457C89.0996 285.457 89.5869 285.19 89.7818 284.645V284.033H88.6231C87.8325 284.033 87.5834 284.333 87.5834 284.734C87.5834 285.168 87.9408 285.457 88.5364 285.457Z" fill="#145185"/>
<path d="M94.8521 280.429V280.685H96.3466V282.02H94.8955V286.536H93.206V282.02H92.3072V280.685H93.206V280.418C93.206 279.073 94.0074 278.194 95.4586 278.194C95.9351 278.194 96.4333 278.294 96.7473 278.516L96.3033 279.773C96.1192 279.64 95.8809 279.562 95.621 279.562C95.1229 279.562 94.8521 279.84 94.8521 280.429Z" fill="#145185"/>
<path d="M102.821 283.566C102.821 283.699 102.8 283.888 102.789 284.033H98.3813C98.5438 284.778 99.161 285.234 100.049 285.234C100.666 285.234 101.11 285.045 101.511 284.656L102.41 285.657C101.868 286.291 101.056 286.625 100.006 286.625C97.9915 286.625 96.6811 285.323 96.6811 283.544C96.6811 281.753 98.0131 280.463 99.7892 280.463C101.5 280.463 102.821 281.642 102.821 283.566ZM99.8 281.775C99.0311 281.775 98.4788 282.254 98.3597 283.021H101.23C101.11 282.265 100.558 281.775 99.8 281.775Z" fill="#145185"/>
<path d="M108.354 280.552H109.957V285.535C109.957 287.759 108.787 288.782 106.686 288.782C105.581 288.782 104.509 288.504 103.827 287.959L104.499 286.714C104.997 287.125 105.809 287.392 106.556 287.392C107.747 287.392 108.267 286.836 108.267 285.757V285.501C107.823 286.002 107.184 286.246 106.426 286.246C104.813 286.246 103.513 285.101 103.513 283.355C103.513 281.608 104.813 280.463 106.426 280.463C107.238 280.463 107.91 280.741 108.354 281.319V280.552ZM106.762 284.823C107.65 284.823 108.289 284.233 108.289 283.355C108.289 282.476 107.65 281.886 106.762 281.886C105.874 281.886 105.224 282.476 105.224 283.355C105.224 284.233 105.874 284.823 106.762 284.823Z" fill="#145185"/>
<path d="M115.709 280.552H117.399V286.536H115.796V285.824C115.352 286.347 114.702 286.625 113.987 286.625C112.525 286.625 111.497 285.779 111.497 283.933V280.552H113.186V283.677C113.186 284.678 113.619 285.123 114.366 285.123C115.146 285.123 115.709 284.611 115.709 283.51V280.552Z" fill="#145185"/>
<path d="M121.314 280.463C123.09 280.463 124.119 281.308 124.119 283.121V286.536H122.538V285.79C122.224 286.335 121.617 286.625 120.762 286.625C119.397 286.625 118.585 285.846 118.585 284.812C118.585 283.755 119.31 283.021 121.086 283.021H122.429C122.429 282.276 121.996 281.842 121.086 281.842C120.469 281.842 119.83 282.053 119.408 282.398L118.801 281.186C119.44 280.719 120.383 280.463 121.314 280.463ZM121.184 285.457C121.747 285.457 122.234 285.19 122.429 284.645V284.033H121.271C120.48 284.033 120.231 284.333 120.231 284.734C120.231 285.168 120.588 285.457 121.184 285.457Z" fill="#145185"/>
<path d="M127.261 281.341C127.673 280.763 128.366 280.463 129.265 280.463V282.064C129.124 282.053 129.016 282.042 128.886 282.042C127.954 282.042 127.337 282.565 127.337 283.711V286.536H125.648V280.552H127.261V281.341Z" fill="#145185"/>
<path d="M134.462 278.283H136.151V286.536H134.537V285.846C134.115 286.369 133.498 286.625 132.718 286.625C131.072 286.625 129.805 285.423 129.805 283.544C129.805 281.664 131.072 280.463 132.718 280.463C133.433 280.463 134.039 280.696 134.462 281.186V278.283ZM133.011 285.201C133.844 285.201 134.494 284.578 134.494 283.544C134.494 282.509 133.844 281.886 133.011 281.886C132.166 281.886 131.516 282.509 131.516 283.544C131.516 284.578 132.166 285.201 133.011 285.201Z" fill="#145185"/>
<path d="M138.559 279.718C137.931 279.718 137.509 279.295 137.509 278.75C137.509 278.205 137.931 277.782 138.559 277.782C139.188 277.782 139.61 278.183 139.61 278.717C139.61 279.295 139.188 279.718 138.559 279.718ZM137.715 286.536V280.552H139.404V286.536H137.715Z" fill="#145185"/>
<path d="M144.513 280.463C145.889 280.463 146.928 281.286 146.928 283.11V286.536H145.239V283.377C145.239 282.409 144.806 281.964 144.059 281.964C143.246 281.964 142.661 282.476 142.661 283.577V286.536H140.972V280.552H142.586V281.252C143.041 280.741 143.723 280.463 144.513 280.463Z" fill="#145185"/>
<path d="M152.931 280.552H154.534V285.535C154.534 287.759 153.364 288.782 151.263 288.782C150.158 288.782 149.086 288.504 148.404 287.959L149.075 286.714C149.574 287.125 150.386 287.392 151.133 287.392C152.324 287.392 152.844 286.836 152.844 285.757V285.501C152.4 286.002 151.761 286.246 151.003 286.246C149.39 286.246 148.09 285.101 148.09 283.355C148.09 281.608 149.39 280.463 151.003 280.463C151.815 280.463 152.487 280.741 152.931 281.319V280.552ZM151.339 284.823C152.227 284.823 152.866 284.233 152.866 283.355C152.866 282.476 152.227 281.886 151.339 281.886C150.451 281.886 149.801 282.476 149.801 283.355C149.801 284.233 150.451 284.823 151.339 284.823Z" fill="#145185"/>
<path d="M163.332 280.552H164.956L162.324 286.903C161.761 288.349 160.96 288.782 159.909 288.782C159.314 288.782 158.664 288.582 158.285 288.237L158.902 287.003C159.162 287.236 159.52 287.381 159.855 287.381C160.321 287.381 160.581 287.17 160.808 286.636L160.83 286.58L158.307 280.552H160.05L161.685 284.611L163.332 280.552Z" fill="#145185"/>
<path d="M168.259 286.625C166.407 286.625 165.054 285.346 165.054 283.544C165.054 281.742 166.407 280.463 168.259 280.463C170.111 280.463 171.454 281.742 171.454 283.544C171.454 285.346 170.111 286.625 168.259 286.625ZM168.259 285.201C169.104 285.201 169.743 284.578 169.743 283.544C169.743 282.509 169.104 281.886 168.259 281.886C167.414 281.886 166.765 282.509 166.765 283.544C166.765 284.578 167.414 285.201 168.259 285.201Z" fill="#145185"/>
<path d="M176.763 280.552H178.453V286.536H176.85V285.824C176.406 286.347 175.756 286.625 175.041 286.625C173.579 286.625 172.551 285.779 172.551 283.933V280.552H174.24V283.677C174.24 284.678 174.673 285.123 175.42 285.123C176.2 285.123 176.763 284.611 176.763 283.51V280.552Z" fill="#145185"/>
<path d="M181.631 281.341C182.043 280.763 182.736 280.463 183.635 280.463V282.064C183.494 282.053 183.386 282.042 183.256 282.042C182.325 282.042 181.707 282.565 181.707 283.711V286.536H180.018V280.552H181.631V281.341Z" fill="#145185"/>
<path d="M191.29 280.463C192.665 280.463 193.705 281.286 193.705 283.11V286.536H192.016V283.377C192.016 282.409 191.582 281.964 190.835 281.964C190.023 281.964 189.438 282.476 189.438 283.577V286.536H187.749V278.283H189.438V281.175C189.893 280.707 190.543 280.463 191.29 280.463Z" fill="#145185"/>
<path d="M201.007 283.566C201.007 283.699 200.985 283.888 200.975 284.033H196.567C196.729 284.778 197.347 285.234 198.235 285.234C198.852 285.234 199.296 285.045 199.697 284.656L200.596 285.657C200.054 286.291 199.242 286.625 198.191 286.625C196.177 286.625 194.867 285.323 194.867 283.544C194.867 281.753 196.199 280.463 197.975 280.463C199.686 280.463 201.007 281.642 201.007 283.566ZM197.986 281.775C197.217 281.775 196.664 282.254 196.545 283.021H199.415C199.296 282.265 198.744 281.775 197.986 281.775Z" fill="#145185"/>
<path d="M204.323 280.463C206.099 280.463 207.128 281.308 207.128 283.121V286.536H205.547V285.79C205.233 286.335 204.626 286.625 203.771 286.625C202.406 286.625 201.594 285.846 201.594 284.812C201.594 283.755 202.32 283.021 204.096 283.021H205.439C205.439 282.276 205.006 281.842 204.096 281.842C203.479 281.842 202.84 282.053 202.417 282.398L201.811 281.186C202.45 280.719 203.392 280.463 204.323 280.463ZM204.193 285.457C204.756 285.457 205.244 285.19 205.439 284.645V284.033H204.28C203.489 284.033 203.24 284.333 203.24 284.734C203.24 285.168 203.598 285.457 204.193 285.457Z" fill="#145185"/>
<path d="M208.657 286.536V278.283H210.347V286.536H208.657Z" fill="#145185"/>
<path d="M215.641 285.023L216.095 286.246C215.749 286.502 215.24 286.625 214.72 286.625C213.345 286.625 212.543 285.902 212.543 284.478V282.02H211.644V280.685H212.543V279.228H214.233V280.685H215.684V282.02H214.233V284.456C214.233 284.967 214.503 285.245 214.958 285.245C215.207 285.245 215.456 285.168 215.641 285.023Z" fill="#145185"/>
<path d="M220.585 280.463C221.96 280.463 223 281.286 223 283.11V286.536H221.311V283.377C221.311 282.409 220.877 281.964 220.13 281.964C219.318 281.964 218.733 282.476 218.733 283.577V286.536H217.044V278.283H218.733V281.175C219.188 280.707 219.838 280.463 220.585 280.463Z" fill="#145185"/>
<path d="M190.5 135.5C191.391 148.072 187.314 159.714 184.367 164.807C156.764 159.633 144.776 146.397 142.232 140.426C141.507 138.723 141.124 136.76 141 135.5" stroke="url(#paint0_linear_79_12)" stroke-width="8"/>
<path d="M35.9997 135.748C35.9997 158.238 40.7249 154.49 59.6254 154.49H97.4265C102.152 154.49 111.602 159.175 111.602 168.546M181.657 168.546H224.384C238.627 168.546 267.112 167.601 267.112 144.92V135.748M111.584 168.546V204.813C111.584 219.893 130.089 236.5 152.089 238.5C152.089 238.5 186.784 240 186.784 229.947V168.546" stroke="url(#paint1_linear_79_12)" stroke-width="12"/>
<path d="M173.955 108.764C177.063 107.849 180.428 108.129 183.531 110.17C186.477 112.106 188.828 115.388 190.698 119.778C190.826 120.079 190.951 120.38 191.072 120.68L191.424 121.583C191.603 122.055 191.771 122.528 191.933 123H183.373C183.361 122.971 183.35 122.942 183.338 122.914C181.798 119.299 180.263 117.596 179.136 116.854C178.166 116.217 177.269 116.127 176.215 116.437C175.006 116.793 173.536 117.72 171.973 119.295C170.918 120.357 169.913 121.626 169.009 123H159.171C159.419 122.964 159.662 122.929 159.899 122.89C160.192 122.28 160.504 121.672 160.835 121.071L161.113 120.575C162.526 118.1 164.286 115.682 166.295 113.658C168.408 111.529 171.002 109.634 173.955 108.764Z" fill="url(#paint2_linear_79_12)"/>
<path d="M163.284 13C175.13 13 183.608 15.558 188.399 22.3594C190.668 25.5801 191.707 29.2337 192.223 32.7705C192.734 36.2722 192.784 40.0801 192.784 43.7822V88.2178L192.798 88.6777C192.935 90.9426 194.085 92.7404 195.863 94.1562C197.948 95.8163 200.225 96.3936 201.027 96.3936H273.112V123H261.112V108.394H201.027C197.082 108.394 192.237 106.609 188.388 103.544C184.383 100.355 180.845 95.2694 180.787 88.3887H180.784V43.7822C180.784 40.0501 180.718 37.0416 180.348 34.5029C179.982 31.9997 179.376 30.3864 178.59 29.2705C177.271 27.3986 173.998 25 163.284 25H125.685C122.818 25 121.28 25.51 120.454 25.9844C119.734 26.398 119.153 27.0088 118.644 28.1904C118.078 29.5036 117.659 31.4043 117.422 34.1523C117.187 36.8793 117.157 40.0417 117.157 43.7822L117.158 99.5801H69.0762C67.193 99.5801 65.2491 99.5178 63.3975 99.46C61.5109 99.401 59.7017 99.3457 57.9277 99.3457C54.324 99.3457 51.3092 99.5829 48.8848 100.282C46.5733 100.949 45.0798 101.951 44.0693 103.376C43.0139 104.865 42.0001 107.502 42 112.321V123H30V112.321C30.0001 105.896 31.3491 100.568 34.2803 96.4346C37.2566 92.2374 41.3746 89.9592 45.5596 88.752C49.6319 87.5773 54.0011 87.3457 57.9277 87.3457C59.9189 87.3457 61.9124 87.4077 63.7725 87.4658C65.6675 87.5251 67.4157 87.5801 69.0762 87.5801H105.157V43.7822C105.157 40.0886 105.181 36.4345 105.467 33.1211C105.751 29.8294 106.32 26.4636 107.623 23.4404C108.983 20.2857 111.153 17.4877 114.479 15.5781C117.698 13.7294 121.502 13 125.685 13H163.284Z" fill="url(#paint3_linear_79_12)"/>
<path d="M12 129.5C12 127.567 13.567 126 15.5 126H283.5C285.433 126 287 127.567 287 129.5V129.5C287 131.433 285.433 133 283.5 133H15.5C13.567 133 12 131.433 12 129.5V129.5Z" fill="#145185"/>
<defs>
<linearGradient id="paint0_linear_79_12" x1="179.089" y1="134" x2="179.888" y2="166.715" gradientUnits="userSpaceOnUse">
<stop stop-color="#145185"/>
<stop offset="0.0001" stop-color="#790000"/>
</linearGradient>
<linearGradient id="paint1_linear_79_12" x1="151.556" y1="129.5" x2="151.556" y2="254" gradientUnits="userSpaceOnUse">
<stop stop-color="#145185"/>
<stop offset="0.0001" stop-color="#790000"/>
</linearGradient>
<linearGradient id="paint2_linear_79_12" x1="183.686" y1="114.339" x2="182.045" y2="124.092" gradientUnits="userSpaceOnUse">
<stop stop-color="#145185"/>
</linearGradient>
<linearGradient id="paint3_linear_79_12" x1="151.556" y1="68.3559" x2="151.556" y2="130.725" gradientUnits="userSpaceOnUse">
<stop stop-color="#145185"/>
</linearGradient>
</defs>
</svg>
