<svg width="275" height="232" viewBox="0 0 275 232" fill="none" xmlns="http://www.w3.org/2000/svg">
<path d="M178.5 122.5C179.391 135.072 175.314 146.714 172.367 151.807C144.764 146.633 132.776 133.397 130.232 127.426C129.507 125.723 129.124 123.76 129 122.5" stroke="url(#paint0_linear_111_147)" stroke-width="8"/>
<path d="M23.9998 122.748C23.9998 145.238 28.7249 141.49 47.6254 141.49H85.4265C90.1516 141.49 99.6019 146.175 99.6019 155.546M169.657 155.546H212.384C226.627 155.546 255.112 154.601 255.112 131.92V122.748M99.5843 155.546V191.813C99.5843 206.893 118.089 223.5 140.089 225.5C140.089 225.5 174.784 227 174.784 216.947V155.546" stroke="url(#paint1_linear_111_147)" stroke-width="12"/>
<path d="M161.955 95.7645C165.063 94.8492 168.428 95.1295 171.531 97.1697C174.477 99.1062 176.828 102.388 178.698 106.778C178.826 107.079 178.951 107.38 179.072 107.68L179.424 108.583C179.603 109.055 179.771 109.528 179.933 110H171.373C171.361 109.971 171.35 109.942 171.338 109.914C169.798 106.299 168.263 104.596 167.136 103.854C166.166 103.217 165.269 103.127 164.215 103.437C163.006 103.793 161.536 104.72 159.973 106.295C158.918 107.357 157.913 108.626 157.009 110H147.171C147.419 109.964 147.662 109.929 147.899 109.89C148.192 109.28 148.504 108.672 148.835 108.071L149.113 107.575C150.526 105.1 152.286 102.682 154.295 100.658C156.408 98.5293 159.002 96.6343 161.955 95.7645Z" fill="url(#paint2_linear_111_147)"/>
<path d="M151.284 0C163.13 3.51451e-05 171.608 2.55802 176.399 9.35938C178.668 12.5801 179.707 16.2337 180.223 19.7705C180.734 23.2722 180.784 27.0801 180.784 30.7822V75.2178L180.798 75.6777C180.935 77.9426 182.085 79.7404 183.863 81.1562C185.948 82.8163 188.225 83.3936 189.027 83.3936H261.112V110H249.112V95.3936H189.027C185.082 95.3936 180.237 93.6088 176.388 90.5439C172.383 87.3554 168.845 82.2694 168.787 75.3887H168.784V30.7822C168.784 27.0501 168.718 24.0416 168.348 21.5029C167.982 18.9997 167.376 17.3864 166.59 16.2705C165.271 14.3986 161.998 12 151.284 12H113.685C110.818 12 109.28 12.51 108.454 12.9844C107.734 13.398 107.153 14.0088 106.644 15.1904C106.078 16.5036 105.659 18.4043 105.422 21.1523C105.187 23.8793 105.157 27.0417 105.157 30.7822L105.158 86.5801H57.0762C55.193 86.5801 53.2491 86.5178 51.3975 86.46C49.5109 86.401 47.7017 86.3457 45.9277 86.3457C42.324 86.3457 39.3092 86.5829 36.8848 87.2822C34.5733 87.9491 33.0798 88.9512 32.0693 90.376C31.0139 91.8645 30.0001 94.5021 30 99.3213V110H18V99.3213C18.0001 92.8963 19.3491 87.5684 22.2803 83.4346C25.2566 79.2374 29.3746 76.9592 33.5596 75.752C37.6319 74.5773 42.0011 74.3457 45.9277 74.3457C47.9189 74.3457 49.9124 74.4077 51.7725 74.4658C53.6675 74.5251 55.4157 74.5801 57.0762 74.5801H93.1572V30.7822C93.1572 27.0886 93.1812 23.4345 93.4668 20.1211C93.7506 16.8294 94.32 13.4636 95.623 10.4404C96.9829 7.28574 99.1532 4.48769 102.479 2.57812C105.698 0.729419 109.502 0 113.685 0H151.284Z" fill="url(#paint3_linear_111_147)"/>
<path d="M0 116.5C0 114.567 1.567 113 3.5 113H271.5C273.433 113 275 114.567 275 116.5V116.5C275 118.433 273.433 120 271.5 120H3.5C1.567 120 0 118.433 0 116.5V116.5Z" fill="#145185"/>
<defs>
<linearGradient id="paint0_linear_111_147" x1="167.089" y1="121" x2="167.888" y2="153.715" gradientUnits="userSpaceOnUse">
<stop stop-color="#145185"/>
<stop offset="0.0001" stop-color="#790000"/>
</linearGradient>
<linearGradient id="paint1_linear_111_147" x1="139.556" y1="116.5" x2="139.556" y2="241" gradientUnits="userSpaceOnUse">
<stop stop-color="#145185"/>
<stop offset="0.0001" stop-color="#790000"/>
</linearGradient>
<linearGradient id="paint2_linear_111_147" x1="171.686" y1="101.339" x2="170.045" y2="111.092" gradientUnits="userSpaceOnUse">
<stop stop-color="#145185"/>
</linearGradient>
<linearGradient id="paint3_linear_111_147" x1="139.556" y1="55.3559" x2="139.556" y2="117.725" gradientUnits="userSpaceOnUse">
<stop stop-color="#145185"/>
</linearGradient>
</defs>
</svg>
