<svg width="42" height="36" viewBox="0 0 42 36" fill="none" xmlns="http://www.w3.org/2000/svg">
<path d="M23.9746 0C19.2058 0 14.6322 1.86481 11.2601 5.18421C7.88807 8.5036 5.99365 13.0057 5.99365 17.7H0L7.77177 25.3503L7.91162 25.6257L15.9831 17.7H9.98942C9.98942 10.089 16.2428 3.93333 23.9746 3.93333C31.7064 3.93333 37.9598 10.089 37.9598 17.7C37.9598 25.311 31.7064 31.4667 23.9746 31.4667C20.1187 31.4667 16.6224 29.913 14.1051 27.4153L11.2681 30.208C12.9331 31.8561 14.9132 33.1634 17.094 34.0545C19.2749 34.9456 21.6133 35.4029 23.9746 35.4C28.7434 35.4 33.317 33.5352 36.6891 30.2158C40.0611 26.8964 41.9556 22.3943 41.9556 17.7C41.9556 13.0057 40.0611 8.5036 36.6891 5.18421C33.317 1.86481 28.7434 6.9951e-08 23.9746 0ZM21.9767 9.83333V19.6667L30.4677 24.6227L32.0061 22.1053L24.9735 17.995V9.83333H21.9767Z" fill="white"/>
</svg>
