<svg width="72" height="72" viewBox="0 0 72 72" fill="none" xmlns="http://www.w3.org/2000/svg">
<circle cx="36" cy="36" r="36" fill="#145185"/>
<path d="M36.4127 23.3191C36.3022 23.2161 36.1551 23.1587 36.0022 23.1587C35.8493 23.1587 35.7023 23.2161 35.5918 23.3191L21.9281 36.0284C21.8701 36.0825 21.8239 36.1474 21.7924 36.2193C21.7609 36.2912 21.7447 36.3686 21.7448 36.4468L21.7426 48.375C21.7426 48.9883 21.9928 49.5765 22.4382 50.0102C22.8836 50.4439 23.4877 50.6875 24.1176 50.6875H31.25C31.5649 50.6875 31.867 50.5657 32.0897 50.3488C32.3124 50.132 32.4375 49.8379 32.4375 49.5312V39.7031C32.4375 39.5498 32.5001 39.4027 32.6114 39.2943C32.7228 39.1859 32.8738 39.125 33.0313 39.125H38.9688C39.1262 39.125 39.2772 39.1859 39.3886 39.2943C39.4999 39.4027 39.5625 39.5498 39.5625 39.7031V49.5312C39.5625 49.8379 39.6876 50.132 39.9103 50.3488C40.133 50.5657 40.4351 50.6875 40.75 50.6875H47.8795C48.5093 50.6875 49.1134 50.4439 49.5588 50.0102C50.0042 49.5765 50.2545 48.9883 50.2545 48.375V36.4468C50.2545 36.3686 50.2383 36.2912 50.2068 36.2193C50.1753 36.1474 50.1292 36.0825 50.0711 36.0284L36.4127 23.3191Z" fill="white"/>
<path d="M53.4347 33.6437L47.8832 28.4723V20.625C47.8832 20.3183 47.7581 20.0242 47.5354 19.8074C47.3127 19.5906 47.0106 19.4688 46.6957 19.4688H43.1332C42.8182 19.4688 42.5162 19.5906 42.2935 19.8074C42.0708 20.0242 41.9457 20.3183 41.9457 20.625V22.9375L37.6469 18.9354C37.2446 18.5394 36.6464 18.3125 36 18.3125C35.3558 18.3125 34.7591 18.5394 34.3568 18.9362L18.5705 33.6422C18.1088 34.0758 18.0509 34.7891 18.471 35.2588C18.5765 35.3774 18.7057 35.4738 18.8506 35.5422C18.9956 35.6106 19.1534 35.6496 19.3143 35.6568C19.4753 35.6639 19.636 35.6391 19.7868 35.5839C19.9376 35.5286 20.0752 35.4441 20.1914 35.3354L35.5918 21.0066C35.7023 20.9036 35.8493 20.8462 36.0022 20.8462C36.1551 20.8462 36.3022 20.9036 36.4127 21.0066L51.8145 35.3354C52.0414 35.5472 52.3453 35.6628 52.6596 35.6569C52.9739 35.6509 53.2729 35.5239 53.4911 35.3036C53.9468 34.844 53.909 34.0852 53.4347 33.6437Z" fill="white"/>
</svg>
