<svg width="88" height="88" viewBox="0 0 88 88" fill="none" xmlns="http://www.w3.org/2000/svg">
<g filter="url(#filter0_d_138_675)">
<circle cx="44" cy="44" r="36" fill="#145185"/>
</g>
<path d="M51.489 46.2483C51.6512 48.5366 50.9091 50.6556 50.3727 51.5826C45.3488 50.6409 43.1667 48.2317 42.7037 47.1448C42.5717 46.835 42.5021 46.4777 42.4795 46.2483" stroke="white" stroke-width="3"/>
<path d="M23.3682 46.2935C23.3682 50.3868 24.2283 49.7046 27.6684 49.7046H34.5486C35.4086 49.7046 37.1287 50.5574 37.1287 52.263M49.8795 52.263H57.6563C60.2486 52.263 65.4332 52.091 65.4332 47.9628V46.2935M37.1255 52.263V58.864C37.1255 61.6088 40.4935 64.6315 44.4978 64.9955C44.4978 64.9955 50.8127 65.2685 50.8127 63.4387V52.263" stroke="white" stroke-width="3"/>
<path d="M48.4776 40.4304C49.0434 40.2638 49.6557 40.3148 50.2206 40.6862C50.7567 41.0386 51.1847 41.6359 51.5251 42.435C51.5484 42.4897 51.5712 42.5445 51.5932 42.5992L51.6572 42.7635C51.6897 42.8494 51.7203 42.9355 51.7498 43.0214H50.1918C50.1896 43.0162 50.1876 43.0109 50.1854 43.0058C49.9051 42.3477 49.6258 42.0377 49.4206 41.9028C49.2441 41.7869 49.0808 41.7705 48.889 41.8269C48.669 41.8917 48.4014 42.0604 48.1168 42.347C47.9249 42.5404 47.7419 42.7713 47.5774 43.0214H45.7868C45.8318 43.0148 45.8761 43.0086 45.9194 43.0015C45.9726 42.8904 46.0294 42.7797 46.0896 42.6703L46.1403 42.5801C46.3974 42.1296 46.7177 41.6895 47.0834 41.3211C47.4681 40.9336 47.9401 40.5887 48.4776 40.4304Z" fill="white" stroke="white"/>
<path d="M46.5354 23C48.6914 23 50.2346 23.4656 51.1067 24.7035C51.5196 25.2897 51.7086 25.9547 51.8026 26.5985C51.8955 27.2358 51.9048 27.9289 51.9048 28.6027V36.6905L51.9072 36.7742C51.9322 37.1864 52.1415 37.5137 52.4652 37.7714C52.8447 38.0735 53.2591 38.1786 53.4051 38.1786H66.5254V43.0212H64.3413V40.3627H53.4051C52.6871 40.3627 51.8051 40.0379 51.1046 39.48C50.3757 38.8997 49.7316 37.974 49.7212 36.7216H49.7206V28.6027C49.7206 27.9234 49.7086 27.3758 49.6412 26.9138C49.5747 26.4582 49.4643 26.1645 49.3212 25.9614C49.0812 25.6207 48.4854 25.1841 46.5354 25.1841H39.6919C39.1701 25.1841 38.8902 25.277 38.7399 25.3633C38.6088 25.4386 38.503 25.5498 38.4103 25.7648C38.3073 26.0038 38.2311 26.3498 38.188 26.85C38.1452 27.3463 38.1398 27.9219 38.1398 28.6027L38.14 38.7586H29.3885C29.0458 38.7586 28.6919 38.7472 28.3549 38.7367C28.0115 38.726 27.6822 38.7159 27.3594 38.7159C26.7034 38.7159 26.1547 38.7591 25.7134 38.8863C25.2927 39.0077 25.0209 39.1901 24.837 39.4494C24.6449 39.7204 24.4603 40.2005 24.4603 41.0776V43.0212H22.2762V41.0776C22.2762 39.9082 22.5218 38.9384 23.0553 38.186C23.597 37.4221 24.3465 37.0074 25.1082 36.7877C25.8494 36.5739 26.6447 36.5318 27.3594 36.5318C27.7218 36.5318 28.0846 36.543 28.4232 36.5536C28.7681 36.5644 29.0863 36.5744 29.3885 36.5744H35.9557V28.6027C35.9557 27.9304 35.96 27.2653 36.012 26.6623C36.0637 26.0631 36.1673 25.4505 36.4045 24.9003C36.652 24.3261 37.047 23.8168 37.6522 23.4692C38.2382 23.1328 38.9306 23 39.6919 23H46.5354Z" fill="white" stroke="white"/>
<path d="M19 44.637C19 44.2852 19.2852 44 19.637 44H68.4161C68.7679 44 69.0531 44.2852 69.0531 44.637V44.637C69.0531 44.9889 68.7679 45.2741 68.4161 45.2741H19.637C19.2852 45.2741 19 44.9889 19 44.637V44.637Z" fill="white"/>
<defs>
<filter id="filter0_d_138_675" x="0.2" y="0.2" width="87.6" height="87.6" filterUnits="userSpaceOnUse" color-interpolation-filters="sRGB">
<feFlood flood-opacity="0" result="BackgroundImageFix"/>
<feColorMatrix in="SourceAlpha" type="matrix" values="0 0 0 0 0 0 0 0 0 0 0 0 0 0 0 0 0 0 127 0" result="hardAlpha"/>
<feOffset/>
<feGaussianBlur stdDeviation="3.9"/>
<feComposite in2="hardAlpha" operator="out"/>
<feColorMatrix type="matrix" values="0 0 0 0 0.242066 0 0 0 0 0.44489 0 0 0 0 0.617788 0 0 0 1 0"/>
<feBlend mode="normal" in2="BackgroundImageFix" result="effect1_dropShadow_138_675"/>
<feBlend mode="normal" in="SourceGraphic" in2="effect1_dropShadow_138_675" result="shape"/>
</filter>
</defs>
</svg>
